<svg version="1.1" xmlns="http://www.w3.org/2000/svg" xmlns:xlink="http://www.w3.org/1999/xlink">
    <defs>
        <!-- pizza slice icon -->
        <symbol id="pizza" viewBox="0 0 33 33">
            <title>Pizza</title>
            <g clip-path="url(#a)">
                <path d="M32.52 23.92c-.146-4.761-1.253-8.572-3.384-11.648-2.16-3.114-5.276-5.483-9.534-7.242a1.72 1.72 0 0 0-2.235.891L8.879 24.863a1.713 1.713 0 0 0 .165 1.703l.005.007a1.713 1.713 0 0 0 1.543.72l20.336-1.597a1.725 1.725 0 0 0 1.592-1.776Zm-1.727.053L10.456 25.57l8.487-18.943c3.862 1.596 6.696 3.71 8.655 6.462l.118.167c1.935 2.794 2.942 6.3 3.077 10.717Z" />
                <path d="M19.34 17.084a1.497 1.497 0 1 0-2.131-2.101 1.497 1.497 0 0 0 2.132 2.101ZM19.317 23.876a1.497 1.497 0 1 0 .72-2.906 1.497 1.497 0 0 0-.72 2.906ZM14.246 20.06l1.723.132-.256 3.364-1.723-.131.256-3.364ZM21.871 17.06l3.06 2.063-.966 1.432-3.06-2.063.966-1.433Z" />
                <path d="M18.308 10.987c1.96.81 4.652 2.292 6.414 4.767.026.036.052.072.077.11 1.442 2.08 2.155 4.422 2.245 7.37l1.728-.052c-.101-3.297-.912-5.935-2.553-8.303-2.002-2.886-5.047-4.578-7.252-5.488l-.66 1.596Z" />
            </g>
            <defs>
                <clipPath id="a">
                    <path transform="rotate(54.547 11.26 21.841)" d="M0 0h27.646v27.646H0z" />
                </clipPath>
            </defs>
        </symbol>

        <!-- burger icon -->
        <symbol id="burger" viewBox="0 0 45 45">
            <title>burger</title>
            <path d="M42.838 25.576c0-.66-.161-1.372-.53-2.09.09-.299.155-.6.204-.903a1.96 1.96 0 0 0 .462-.371c.942-1.05.604-3.093.32-4.217a1.282 1.282 0 0 0-.133-.32c.087-.318.133-.65.133-.996 0-8.422-9.327-15.273-20.794-15.273S1.706 8.256 1.706 16.68c0 .346.046.678.132.996-.058.1-.102.207-.132.318-.284 1.124-.622 3.163.316 4.211.093.562.25 1.126.487 1.685a4.468 4.468 0 0 0-.345 1.686c0 .537.05 1.058.142 1.567a6.718 6.718 0 0 0-.541 2.623c0 6.309 3.598 13.829 20.735 13.829s20.734-7.52 20.734-13.829a6.72 6.72 0 0 0-.54-2.622c.092-.509.144-1.03.144-1.567Zm-.95-8.897c0 3.55-7.791 5.935-19.388 5.935-11.597 0-19.388-2.386-19.388-5.935 0-7.671 8.698-13.911 19.388-13.911 10.69 0 19.388 6.24 19.388 13.91ZM22.5 42.233c-12.826 0-19.329-4.195-19.329-12.468 0-.076.001-.152.005-.228 2.613 5.229 9.098 7.876 19.325 7.876 10.225 0 16.71-2.646 19.323-7.874.003.075.004.151.004.226 0 8.274-6.502 12.468-19.328 12.468Zm19.301-17.057-.007-.015-.035.128c-1.69 4.178-6.998 7.07-17.351 7.382l-3.422 3.355c-.101-.002-.207-.002-.308-.005l-3.766-3.592c-7.93-.823-12.174-3.474-13.663-7.11l-.043-.157-.012.027c-.016-.04-.036-.078-.05-.118 1.115 1.746 3.045 3.389 6.07 4.677 2.374 1.01 4.48 1.405 6.305 1.353l-2.916-2.782c-.92-.236-1.82-.543-2.693-.918a17.486 17.486 0 0 1-2.967-1.6c.23.082.47.138.732.138.56 0 1.1-.19 1.578-.36.145-.05.352-.123.516-.17.073.13.155.288.217.41.35.687.828 1.625 1.834 1.914.182.052.373.078.568.078.733 0 1.365-.366 1.923-.689a8.86 8.86 0 0 1 .452-.25c.093.114.199.258.28.369.45.611 1.068 1.45 2.087 1.582.087.012.174.017.261.017.87 0 1.559-.545 2.112-.984.117-.092.27-.214.398-.306.11.103.235.233.332.332.556.572 1.247 1.285 2.268 1.285 1.02 0 1.711-.712 2.267-1.285.097-.1.223-.229.332-.332.13.092.281.214.398.306.553.438 1.242.984 2.112.984a2.123 2.123 0 0 0 .929-.22l-1.664 1.631c1.809.421 4.003.44 6.614-.13 5.173-1.129 7.81-3.653 8.736-6.393a8.08 8.08 0 0 1-.424 1.448ZM3.966 22.932h.094c.162 0 .33-.006.5-.01.141-.006.282-.012.42-.012.072 0 .13.002.177.004.042.141.085.322.119.46.126.522.29 1.174.682 1.698-.827-.68-1.489-1.398-1.992-2.14Zm25.033 5.386c.39-.315.695-.72.96-1.079.082-.11.188-.255.281-.37.143.074.318.175.45.252.558.323 1.188.689 1.922.689.194 0 .386-.027.568-.078 1.006-.29 1.485-1.228 1.834-1.915.063-.122.144-.28.217-.408.164.046.372.12.516.17.478.168 1.019.36 1.58.36.154 0 .301-.023.446-.051-1.324.85-3.013 1.549-5.134 2.011a17.585 17.585 0 0 1-3.64.42Zm10.258-3.582c.241-.45.366-.944.466-1.36.033-.136.077-.318.118-.458.047-.003.103-.005.172-.005.14 0 .282.006.424.01.094.004.184.005.276.007a8.307 8.307 0 0 1-1.456 1.806Zm2.702-3.433c-.203.225-.584.272-1.016.272-.298 0-.622-.022-.928-.022-.416 0-.802.04-1.058.227-.65.476-.487 2.307-1.274 2.72a.766.766 0 0 1-.356.078c-.662 0-1.614-.575-2.315-.575a.914.914 0 0 0-.338.057c-.764.3-1.032 2.123-1.872 2.364a.676.676 0 0 1-.189.026c-.74 0-1.754-1.028-2.528-1.028a.823.823 0 0 0-.155.014c-.813.165-1.376 1.923-2.236 2.037a.84.84 0 0 1-.084.004c-.796 0-1.745-1.395-2.569-1.395l-.044.002c-.835.053-1.633 1.72-2.496 1.72s-1.659-1.667-2.494-1.72a.966.966 0 0 0-.045-.002c-.824 0-1.774 1.395-2.57 1.395a.65.65 0 0 1-.083-.005c-.86-.113-1.421-1.871-2.236-2.036a.75.75 0 0 0-.155-.014c-.774 0-1.79 1.027-2.53 1.027a.675.675 0 0 1-.189-.025c-.84-.242-1.109-2.066-1.873-2.364a.916.916 0 0 0-.338-.057c-.7 0-1.651.574-2.313.574a.768.768 0 0 1-.358-.078c-.786-.415-.625-2.246-1.274-2.72-.258-.19-.645-.229-1.061-.229-.306 0-.626.022-.922.022-.435 0-.816-.046-1.02-.274-.32-.357-.299-1.187-.21-1.88 3.004 3.308 11.56 4.556 19.67 4.556 8.112 0 16.668-1.248 19.67-4.556.09.694.11 1.526-.211 1.885" />
            <path d="M10.53 10.948 9.467 9.927l-1.064 1.02 1.064 1.02 1.065-1.02ZM14.714 10.29l1.064-1.02-1.064-1.02-1.064 1.02 1.064 1.02ZM18.756 13.931l-1.063-1.02-1.065 1.02 1.065 1.02 1.063-1.02ZM22.436 10.268l-.709-.68-.71.68.71.68.709-.68ZM34.205 12.91l.71.68.71-.68-.71-.68-.71.68ZM39.934 13.59l-.71-.68-.71.68.71.68.71-.68ZM31.736 8.59l-.709-.681-.71.68.71.681.71-.68ZM10.271 7.74l-.708-.681-.71.68.71.68.708-.68ZM6.486 10.948l-.71-.68-.71.68.71.68.71-.68ZM9.466 15.44l.71.681.71-.68-.71-.681-.71.68ZM19.111 5.018l-.709-.681-.71.68.71.681.709-.68ZM25.809 4.337l-.709-.68-.71.68.71.68.709-.68ZM14.714 5.698l-.71-.68-.709.68.71.68.709-.68ZM34.869 7.313l-.71-.68-.71.68.71.68.71-.68ZM26.165 16.884l1.064-1.02-1.064-1.022-1.066 1.021 1.066 1.021ZM25.561 10.63l-1.063-1.02-1.065 1.02 1.065 1.021 1.063-1.02ZM29.483 6.718l-1.064-1.02-1.065 1.02 1.065 1.021 1.064-1.02ZM30.422 11.085l1.064 1.021 1.064-1.02-1.064-1.021-1.064 1.02ZM37.044 9.61 35.98 8.59l-1.065 1.02 1.065 1.02 1.064-1.02ZM32.55 16.608l1.065-1.02-1.065-1.021-1.064 1.02 1.064 1.02ZM5.775 13.821l1.066 1.021 1.064-1.02-1.064-1.02-1.066 1.02ZM36.328 30.747a1.79 1.79 0 0 0-.207-.818 2.77 2.77 0 0 0 .08-.353.771.771 0 0 0 .18-.145c.369-.411.237-1.21.125-1.65a.502.502 0 0 0-.052-.125c.034-.125.052-.255.052-.39 0-3.296-3.65-5.977-8.136-5.977-4.487 0-8.137 2.681-8.137 5.977 0 .135.018.265.051.39a.505.505 0 0 0-.051.124c-.111.44-.244 1.237.123 1.648.037.22.098.44.19.66a1.749 1.749 0 0 0-.134.659c0 .21.02.414.056.613-.14.324-.211.673-.212 1.026 0 2.469 1.408 5.412 8.114 5.412 6.705 0 8.113-2.943 8.113-5.412a2.628 2.628 0 0 0-.212-1.026c.037-.199.057-.403.057-.613Zm-.372-3.481c0 1.389-3.049 2.322-7.586 2.322-4.538 0-7.587-.934-7.587-2.322 0-3.002 3.403-5.444 7.587-5.444 4.183 0 7.586 2.442 7.586 5.444Zm-7.586 9.999c-5.02 0-7.564-1.641-7.564-4.879 0-.03 0-.06.002-.089 1.022 2.046 3.56 3.082 7.562 3.082 4.001 0 6.538-1.035 7.561-3.081l.002.088c0 3.238-2.545 4.879-7.563 4.879Zm7.552-6.674-.003-.006-.013.05c-.662 1.634-2.739 2.766-6.79 2.889l-1.339 1.312c-.04 0-.081 0-.12-.002l-1.474-1.405c-3.103-.322-4.764-1.36-5.346-2.782l-.017-.062-.005.01-.02-.046c.437.684 1.192 1.326 2.376 1.83.929.396 1.753.55 2.467.53l-1.141-1.088a7.24 7.24 0 0 1-1.054-.36 6.838 6.838 0 0 1-1.16-.625c.089.031.183.053.285.053.22 0 .431-.074.618-.14.057-.02.138-.049.202-.067.029.05.06.113.085.16.137.269.324.636.718.75.07.02.145.03.222.03.287 0 .534-.143.752-.27.052-.03.12-.07.177-.098.037.045.078.101.11.144.176.24.417.568.816.62a.75.75 0 0 0 .102.006c.341 0 .61-.213.827-.384a3.92 3.92 0 0 1 .156-.12c.042.04.092.09.13.13.217.223.488.502.887.502s.67-.278.887-.502c.038-.04.087-.09.13-.13.05.036.11.083.156.12.216.17.486.384.826.384a.826.826 0 0 0 .364-.086l-.651.639c.707.164 1.566.172 2.588-.051 2.024-.442 3.056-1.43 3.418-2.502a3.156 3.156 0 0 1-.166.567Zm-14.805-.879h.037c.063 0 .13-.002.196-.004a4.155 4.155 0 0 1 .233-.002c.017.055.034.126.047.18.05.204.114.459.267.664a4.003 4.003 0 0 1-.78-.838Zm9.796 2.108c.153-.123.271-.282.375-.422.032-.043.074-.1.11-.145.056.029.125.068.177.099.218.126.464.27.752.27.076 0 .15-.011.222-.031.393-.114.58-.48.717-.75.025-.047.056-.11.085-.16.065.019.146.047.202.067.187.066.399.14.618.14.06 0 .118-.008.175-.019-.518.333-1.18.606-2.009.787-.468.104-.945.16-1.424.164Zm4.014-1.402c.094-.175.143-.37.182-.531.013-.054.03-.125.046-.18l.068-.002c.054 0 .11.003.166.004l.107.003a3.25 3.25 0 0 1-.57.706Zm1.057-1.343c-.08.088-.228.106-.398.106-.116 0-.243-.008-.363-.008-.162 0-.313.016-.414.089-.254.186-.19.902-.498 1.064a.3.3 0 0 1-.14.03c-.259 0-.631-.224-.905-.225a.357.357 0 0 0-.133.023c-.299.117-.403.83-.732.925a.265.265 0 0 1-.074.01c-.29 0-.687-.402-.99-.402-.02 0-.04.002-.06.005-.318.065-.539.753-.875.797a.328.328 0 0 1-.033.002c-.311 0-.683-.546-1.005-.546h-.017c-.327.021-.64.674-.977.674-.338 0-.65-.652-.976-.673h-.018c-.322 0-.694.545-1.005.545-.011 0-.022 0-.033-.002-.336-.044-.556-.732-.875-.797a.295.295 0 0 0-.06-.005c-.303 0-.7.402-.99.402a.265.265 0 0 1-.074-.01c-.33-.095-.434-.808-.733-.925a.358.358 0 0 0-.133-.023c-.273 0-.645.225-.904.225-.052 0-.1-.009-.14-.03-.308-.163-.245-.88-.499-1.065-.101-.074-.253-.09-.415-.09-.12 0-.245.01-.361.01-.17 0-.32-.019-.4-.108-.125-.14-.116-.464-.081-.735 1.175 1.294 4.523 1.782 7.697 1.782 3.174 0 6.522-.488 7.697-1.782.034.271.043.597-.083.737Z" />
            <path d="m23.686 25.023-.417-.4-.416.4.416.4.417-.4ZM25.323 24.766l.416-.4-.416-.399-.417.4.417.399ZM26.905 26.19l-.417-.4-.416.4.416.4.417-.4ZM28.345 24.757l-.278-.266-.278.266.278.266.277-.266ZM32.95 25.79l.278.267.277-.266-.277-.266-.278.266ZM35.191 26.057l-.277-.266-.278.266.278.266.277-.266ZM31.984 24.1l-.278-.266-.277.266.277.266.278-.266ZM23.584 23.768l-.277-.267-.278.267.278.266.277-.266ZM22.103 25.023l-.278-.266-.277.266.277.266.278-.266ZM23.27 26.781l.277.267.278-.267-.278-.266-.278.266ZM27.043 22.703l-.277-.267-.278.267.278.266.277-.267ZM29.664 22.436l-.277-.266-.278.266.278.267.277-.267ZM25.323 22.969l-.278-.267-.277.267.277.266.278-.266ZM33.21 23.6l-.278-.265-.278.266.278.266.277-.266ZM29.803 27.346l.417-.4-.416-.399-.417.4.416.399ZM29.567 24.899l-.416-.4-.416.4.416.4.416-.4ZM31.102 23.368l-.416-.4-.417.4.417.4.416-.4ZM31.47 25.077l.416.4.416-.4-.416-.4-.416.4ZM34.06 24.5l-.416-.4-.416.4.416.399.417-.4ZM32.302 27.238l.417-.4-.417-.399-.416.4.416.399ZM21.825 26.148l.417.399.416-.4-.416-.399-.417.4Z" />
        </symbol>

        <!-- salad icon -->
        <symbol id="salad" viewBox="0 0 33 33">
            <title>Salad</title>
            <path d="M19.92 14.14c-.29-.866-.734-1.176-1.248-1.176-.626 0-1.356.46-2.042.936-.409.284-1.99 2.03-2.853 2.03a.468.468 0 0 1-.277-.082c-.842-.596.213-3.193.213-4.438 0-1.206-.22-1.666-.555-1.666-.927 0-2.744 3.531-3.25 4.55-.144.288-.343.401-.575.401-.81 0-2.013-1.392-2.566-1.606a.722.722 0 0 0-.26-.053c-.924 0-.904 2.299-.89 2.909.505-.138.979-.223 1.393-.223 1.043 0 1.707.54 1.534 2.127-.04.357-.265 1.492.104 1.743.06.039.13.058.2.056.425 0 1.1-.525 1.35-.685.337-.216.69-.374.99-.374.36 0 .64.229.72.861.049.375-.135 1.8.232 2.027a.34.34 0 0 0 .179.049c.677 0 1.834-1.694 2.357-1.887.246-.091.506-.138.768-.137.697 0 1.36.308 2.037.568a.803.803 0 0 0 .282.063c.41 0 .29-.569-.06-.932-.51-.532-1.32-.299-1.888-.68-.722-.484.283-1.457.673-1.745.465-.345 1.497-.9 2.32-.9.382 0 .719.12.933.432.404.592-.269 1.339-.099 2.003.072.276.245.37.45.37.436 0 1.015-.43 1.055-.472.266-.276.552-.532.856-.766-1.52-.337-1.649-2.01-2.082-3.303" />
            <path d="M7.458 12.895s1.314 1.159 1.876 1.159c.107 0 .188-.043.225-.146.809-2.212 2.517-4.74 3.633-4.74.486 0 .86.481.995 1.681.177 1.553-.898 3.908-.381 4.444a.113.113 0 0 0 .086.035c.58 0 2.874-2.938 4.837-2.938a1.8 1.8 0 0 1 .448.056c1.768.454 1.002 3.469 2.438 4.33.237.145.51.223.788.225.529 0 1.012-.302 1.128-.925.291-1.574-4.708-4.625-2.003-4.625.388 0 .934.063 1.677.201.443-3.031.288-3.872-.108-3.872-.452 0-1.218 1.092-1.775 1.28a.164.164 0 0 1-.05.008c-.319 0-.307-1.147-.852-1.147-.353 0-.936.479-1.989 2.052-.543.811-.95 1.132-1.27 1.132-1.222 0-1.187-4.67-2.652-4.67-.296 0-.653.19-1.094.648-.677.703-1.309.952-1.9.952-1.441 0-2.635-1.48-3.613-1.48-.386 0-.74.23-1.06.875-.665 1.335 1.585 1.266.616 5.465Zm1.721.6c-.263-.117-.73-.433-1.168-.793.081-.397.131-.753.16-1.081.124-.207.276-.411.461-.6.756-.77 1.724-1.014 2.199-.569a14.36 14.36 0 0 0-1.652 3.043Zm11.106-1.986c-.247.584.233 1.201.969 2.008a.721.721 0 0 1-.402.221c-.234-.79-.627-1.549-1.553-1.787a2.282 2.282 0 0 0-.415-.061c-.251-.816-.134-1.583.341-1.848.524-.293 1.288.126 1.81.939-.291.056-.607.19-.75.527" />
            <path d="M24.003 16.087c-.109.715.931.843.434 2.015-.255.6-2.415 1.982-2.256 2.285.236.442.519.614.805.614.567 0 1.145-.673 1.377-1.256.305-.762.384-2.764 1.125-3.135a.813.813 0 0 1 .372-.091c.733 0 1.418.99 2.078 1.124.16-.717.046-1.461.21-2.182-2.787-.035 1.547-3.843-.929-5.396a.657.657 0 0 0-.344-.12c-.779 0-.598 2.386-2.567 2.386-.157 0-.328-.015-.515-.048-.72-.127-1.218-.186-1.543-.186-1.898.001 2.061 1.997 1.753 3.99" />
            <path d="M28.939 12.347c.07-.43.074-.868.01-1.298-.179-1.2-1.116-2.176-2.089-2.177-.332 0-1.128.139-1.505 1.32a18.127 18.127 0 0 0-.767-.3c.223-1.497.14-2.524-.26-3.048a1.035 1.035 0 0 0-.837-.422c-.523 0-1.11.35-1.84 1.098l-.026-.07c-.155-.42-.415-1.12-1.11-1.12-.474 0-1.104.292-2.425 2.22a28.746 28.746 0 0 0-1.152-.062l-.071-.258c-.413-1.515-.88-3.23-2.199-3.231-.538 0-1.103.316-1.73.967-.466.485-.928.72-1.412.72-.589 0-1.192-.338-1.777-.664-.59-.33-1.2-.672-1.831-.672-.748 0-1.356.459-1.859 1.402-.575 1.078-.255 1.79.054 2.48.135.3.276.618.377 1.01C3.141 11.68 1 13.857 1 16.297 1 23.066 7.716 31 16 31c8.285 0 15-7.935 15-14.701 0-1.444-.759-2.791-2.061-3.952ZM16 29.98c-6.306 0-11.607-4.949-13.371-10.13 2.48 2.544 7.534 4.288 13.371 4.288 5.837 0 10.89-1.744 13.37-4.287C27.606 25.032 22.305 29.98 16 29.98Zm5.567-8.744c-.12.38-.494.956-.959 1.361-.717.626-1.591.76-2.008.323-.35-.369-.292-1.055.11-1.696.823-1.314 2.003-1.602 2.515-1.342-.01.036-.024.07-.031.109-.071.4.058.819.373 1.245Zm7.684-6.423c-.489 0-.725 1.355-.76 2.208-.03.752-.247 1.002-.558 1.002-.447 0-1.088-.518-1.648-.811-.178-.094-.316-.136-.424-.136-.32 0-.379.375-.489.905-.186.895-.407 1.823-.892 2.594-.355.566-.906.96-1.457.96-.363 0-.726-.17-1.035-.572-1.215-1.579 1.454-1.902 1.986-2.984.308-.627.21-.845-.073-.845-.555 0-1.82.848-2.081 1.087-.461.421-.99 1.043-1.639 1.043-.109 0-.223-.018-.34-.058-.687-.232-.784-1.097-.638-1.74.121-.537.4-1.019-.319-1.046a1.927 1.927 0 0 0-.076-.002c-.462 0-.934.152-1.354.342-.509.231-1.213.644-1.398 1.25-.057.187 1.177.381 1.37.456.962.376 1.432 2.186.426 2.186-.13 0-.285-.03-.466-.096-.631-.236-1.266-.569-1.926-.569-.218 0-.437.036-.66.123-.46.181-.713.698-1.075 1.021-.537.482-1.012.741-1.386.741-.514 0-.834-.492-.854-1.572-.018-.878-.186-1.162-.459-1.162-.486 0-1.302.907-2.178.974a1.26 1.26 0 0 1-.074.003c-1.17 0-.714-2.224-.623-2.91.099-.747-.352-1.012-1.046-1.012-.781 0-1.867.335-2.823.698.046.041.095.077.138.122.875.873 1.163 2.024.644 2.57-.519.544-1.648.278-2.522-.596-.874-.874-1.163-2.026-.643-2.57.443-.469 1.132-.311 1.719.001.767-.258 1.544-.482 1.526-.844-.136-2.738.64-3.249 1.24-3.248.228.005.452.068.65.181.541-3.485-1.489-3.721-.535-5.51.452-.847.923-1.136 1.42-1.136 1.069 0 2.254 1.335 3.609 1.335.559 0 1.147-.228 1.768-.873.556-.578 1.005-.814 1.373-.814 1.648 0 1.692 4.735 2.635 4.735.181 0 .396-.175.66-.59 1.383-2.172 2.118-2.815 2.552-2.815.633 0 .625 1.369 1.043 1.369.086 0 .191-.059.323-.199.694-.74 1.229-1.078 1.61-1.078.898 0 .943 1.88.211 4.81 0 0 .163.041.403.041.51 0 1.364-.187 1.698-1.359.21-.738.62-1.041 1.057-1.041.69 0 1.447.755 1.595 1.743.268 1.803-.921 3.08-.828 3.625.016.096.064.134.134.134.267 0 .866-.543 1.388-.543.39 0 .738.303.872 1.36-.306-.64-.561-.889-.77-.889" />
        </symbol>

        <svg width="45" height="45" fill="none" xmlns="http://www.w3.org/2000/svg">
            <path d="M42.838 25.576c0-.66-.161-1.372-.53-2.09.09-.299.155-.6.204-.903a1.96 1.96 0 0 0 .462-.371c.942-1.05.604-3.093.32-4.217a1.282 1.282 0 0 0-.133-.32c.087-.318.133-.65.133-.996 0-8.422-9.327-15.273-20.794-15.273S1.706 8.256 1.706 16.68c0 .346.046.678.132.996-.058.1-.102.207-.132.318-.284 1.124-.622 3.163.316 4.211.093.562.25 1.126.487 1.685a4.468 4.468 0 0 0-.345 1.686c0 .537.05 1.058.142 1.567a6.718 6.718 0 0 0-.541 2.623c0 6.309 3.598 13.829 20.735 13.829s20.734-7.52 20.734-13.829a6.72 6.72 0 0 0-.54-2.622c.092-.509.144-1.03.144-1.567Zm-.95-8.897c0 3.55-7.791 5.935-19.388 5.935-11.597 0-19.388-2.386-19.388-5.935 0-7.671 8.698-13.911 19.388-13.911 10.69 0 19.388 6.24 19.388 13.91ZM22.5 42.233c-12.826 0-19.329-4.195-19.329-12.468 0-.076.001-.152.005-.228 2.613 5.229 9.098 7.876 19.325 7.876 10.225 0 16.71-2.646 19.323-7.874.003.075.004.151.004.226 0 8.274-6.502 12.468-19.328 12.468Zm19.301-17.057-.007-.015-.035.128c-1.69 4.178-6.998 7.07-17.351 7.382l-3.422 3.355c-.101-.002-.207-.002-.308-.005l-3.766-3.592c-7.93-.823-12.174-3.474-13.663-7.11l-.043-.157-.012.027c-.016-.04-.036-.078-.05-.118 1.115 1.746 3.045 3.389 6.07 4.677 2.374 1.01 4.48 1.405 6.305 1.353l-2.916-2.782c-.92-.236-1.82-.543-2.693-.918a17.486 17.486 0 0 1-2.967-1.6c.23.082.47.138.732.138.56 0 1.1-.19 1.578-.36.145-.05.352-.123.516-.17.073.13.155.288.217.41.35.687.828 1.625 1.834 1.914.182.052.373.078.568.078.733 0 1.365-.366 1.923-.689a8.86 8.86 0 0 1 .452-.25c.093.114.199.258.28.369.45.611 1.068 1.45 2.087 1.582.087.012.174.017.261.017.87 0 1.559-.545 2.112-.984.117-.092.27-.214.398-.306.11.103.235.233.332.332.556.572 1.247 1.285 2.268 1.285 1.02 0 1.711-.712 2.267-1.285.097-.1.223-.229.332-.332.13.092.281.214.398.306.553.438 1.242.984 2.112.984a2.123 2.123 0 0 0 .929-.22l-1.664 1.631c1.809.421 4.003.44 6.614-.13 5.173-1.129 7.81-3.653 8.736-6.393a8.08 8.08 0 0 1-.424 1.448ZM3.966 22.932h.094c.162 0 .33-.006.5-.01.141-.006.282-.012.42-.012.072 0 .13.002.177.004.042.141.085.322.119.46.126.522.29 1.174.682 1.698-.827-.68-1.489-1.398-1.992-2.14Zm25.033 5.386c.39-.315.695-.72.96-1.079.082-.11.188-.255.281-.37.143.074.318.175.45.252.558.323 1.188.689 1.922.689.194 0 .386-.027.568-.078 1.006-.29 1.485-1.228 1.834-1.915.063-.122.144-.28.217-.408.164.046.372.12.516.17.478.168 1.019.36 1.58.36.154 0 .301-.023.446-.051-1.324.85-3.013 1.549-5.134 2.011a17.585 17.585 0 0 1-3.64.42Zm10.258-3.582c.241-.45.366-.944.466-1.36.033-.136.077-.318.118-.458.047-.003.103-.005.172-.005.14 0 .282.006.424.01.094.004.184.005.276.007a8.307 8.307 0 0 1-1.456 1.806Zm2.702-3.433c-.203.225-.584.272-1.016.272-.298 0-.622-.022-.928-.022-.416 0-.802.04-1.058.227-.65.476-.487 2.307-1.274 2.72a.766.766 0 0 1-.356.078c-.662 0-1.614-.575-2.315-.575a.914.914 0 0 0-.338.057c-.764.3-1.032 2.123-1.872 2.364a.676.676 0 0 1-.189.026c-.74 0-1.754-1.028-2.528-1.028a.823.823 0 0 0-.155.014c-.813.165-1.376 1.923-2.236 2.037a.84.84 0 0 1-.084.004c-.796 0-1.745-1.395-2.569-1.395l-.044.002c-.835.053-1.633 1.72-2.496 1.72s-1.659-1.667-2.494-1.72a.966.966 0 0 0-.045-.002c-.824 0-1.774 1.395-2.57 1.395a.65.65 0 0 1-.083-.005c-.86-.113-1.421-1.871-2.236-2.036a.75.75 0 0 0-.155-.014c-.774 0-1.79 1.027-2.53 1.027a.675.675 0 0 1-.189-.025c-.84-.242-1.109-2.066-1.873-2.364a.916.916 0 0 0-.338-.057c-.7 0-1.651.574-2.313.574a.768.768 0 0 1-.358-.078c-.786-.415-.625-2.246-1.274-2.72-.258-.19-.645-.229-1.061-.229-.306 0-.626.022-.922.022-.435 0-.816-.046-1.02-.274-.32-.357-.299-1.187-.21-1.88 3.004 3.308 11.56 4.556 19.67 4.556 8.112 0 16.668-1.248 19.67-4.556.09.694.11 1.526-.211 1.885" fill="#5B5A5A" />
            <path d="M10.53 10.948 9.467 9.927l-1.064 1.02 1.064 1.02 1.065-1.02ZM14.714 10.29l1.064-1.02-1.064-1.02-1.064 1.02 1.064 1.02ZM18.756 13.931l-1.063-1.02-1.065 1.02 1.065 1.02 1.063-1.02ZM22.436 10.268l-.709-.68-.71.68.71.68.709-.68ZM34.205 12.91l.71.68.71-.68-.71-.68-.71.68ZM39.934 13.59l-.71-.68-.71.68.71.68.71-.68ZM31.736 8.59l-.709-.681-.71.68.71.681.71-.68ZM10.271 7.74l-.708-.681-.71.68.71.68.708-.68ZM6.486 10.948l-.71-.68-.71.68.71.68.71-.68ZM9.466 15.44l.71.681.71-.68-.71-.681-.71.68ZM19.111 5.018l-.709-.681-.71.68.71.681.709-.68ZM25.809 4.337l-.709-.68-.71.68.71.68.709-.68ZM14.714 5.698l-.71-.68-.709.68.71.68.709-.68ZM34.869 7.313l-.71-.68-.71.68.71.68.71-.68ZM26.165 16.884l1.064-1.02-1.064-1.022-1.066 1.021 1.066 1.021ZM25.561 10.63l-1.063-1.02-1.065 1.02 1.065 1.021 1.063-1.02ZM29.483 6.718l-1.064-1.02-1.065 1.02 1.065 1.021 1.064-1.02ZM30.422 11.085l1.064 1.021 1.064-1.02-1.064-1.021-1.064 1.02ZM37.044 9.61 35.98 8.59l-1.065 1.02 1.065 1.02 1.064-1.02ZM32.55 16.608l1.065-1.02-1.065-1.021-1.064 1.02 1.064 1.02ZM5.775 13.821l1.066 1.021 1.064-1.02-1.064-1.02-1.066 1.02ZM36.328 30.747a1.79 1.79 0 0 0-.207-.818 2.77 2.77 0 0 0 .08-.353.771.771 0 0 0 .18-.145c.369-.411.237-1.21.125-1.65a.502.502 0 0 0-.052-.125c.034-.125.052-.255.052-.39 0-3.296-3.65-5.977-8.136-5.977-4.487 0-8.137 2.681-8.137 5.977 0 .135.018.265.051.39a.505.505 0 0 0-.051.124c-.111.44-.244 1.237.123 1.648.037.22.098.44.19.66a1.749 1.749 0 0 0-.134.659c0 .21.02.414.056.613-.14.324-.211.673-.212 1.026 0 2.469 1.408 5.412 8.114 5.412 6.705 0 8.113-2.943 8.113-5.412a2.628 2.628 0 0 0-.212-1.026c.037-.199.057-.403.057-.613Zm-.372-3.481c0 1.389-3.049 2.322-7.586 2.322-4.538 0-7.587-.934-7.587-2.322 0-3.002 3.403-5.444 7.587-5.444 4.183 0 7.586 2.442 7.586 5.444Zm-7.586 9.999c-5.02 0-7.564-1.641-7.564-4.879 0-.03 0-.06.002-.089 1.022 2.046 3.56 3.082 7.562 3.082 4.001 0 6.538-1.035 7.561-3.081l.002.088c0 3.238-2.545 4.879-7.563 4.879Zm7.552-6.674-.003-.006-.013.05c-.662 1.634-2.739 2.766-6.79 2.889l-1.339 1.312c-.04 0-.081 0-.12-.002l-1.474-1.405c-3.103-.322-4.764-1.36-5.346-2.782l-.017-.062-.005.01-.02-.046c.437.684 1.192 1.326 2.376 1.83.929.396 1.753.55 2.467.53l-1.141-1.088a7.24 7.24 0 0 1-1.054-.36 6.838 6.838 0 0 1-1.16-.625c.089.031.183.053.285.053.22 0 .431-.074.618-.14.057-.02.138-.049.202-.067.029.05.06.113.085.16.137.269.324.636.718.75.07.02.145.03.222.03.287 0 .534-.143.752-.27.052-.03.12-.07.177-.098.037.045.078.101.11.144.176.24.417.568.816.62a.75.75 0 0 0 .102.006c.341 0 .61-.213.827-.384a3.92 3.92 0 0 1 .156-.12c.042.04.092.09.13.13.217.223.488.502.887.502s.67-.278.887-.502c.038-.04.087-.09.13-.13.05.036.11.083.156.12.216.17.486.384.826.384a.826.826 0 0 0 .364-.086l-.651.639c.707.164 1.566.172 2.588-.051 2.024-.442 3.056-1.43 3.418-2.502a3.156 3.156 0 0 1-.166.567Zm-14.805-.879h.037c.063 0 .13-.002.196-.004a4.155 4.155 0 0 1 .233-.002c.017.055.034.126.047.18.05.204.114.459.267.664a4.003 4.003 0 0 1-.78-.838Zm9.796 2.108c.153-.123.271-.282.375-.422.032-.043.074-.1.11-.145.056.029.125.068.177.099.218.126.464.27.752.27.076 0 .15-.011.222-.031.393-.114.58-.48.717-.75.025-.047.056-.11.085-.16.065.019.146.047.202.067.187.066.399.14.618.14.06 0 .118-.008.175-.019-.518.333-1.18.606-2.009.787-.468.104-.945.16-1.424.164Zm4.014-1.402c.094-.175.143-.37.182-.531.013-.054.03-.125.046-.18l.068-.002c.054 0 .11.003.166.004l.107.003a3.25 3.25 0 0 1-.57.706Zm1.057-1.343c-.08.088-.228.106-.398.106-.116 0-.243-.008-.363-.008-.162 0-.313.016-.414.089-.254.186-.19.902-.498 1.064a.3.3 0 0 1-.14.03c-.259 0-.631-.224-.905-.225a.357.357 0 0 0-.133.023c-.299.117-.403.83-.732.925a.265.265 0 0 1-.074.01c-.29 0-.687-.402-.99-.402-.02 0-.04.002-.06.005-.318.065-.539.753-.875.797a.328.328 0 0 1-.033.002c-.311 0-.683-.546-1.005-.546h-.017c-.327.021-.64.674-.977.674-.338 0-.65-.652-.976-.673h-.018c-.322 0-.694.545-1.005.545-.011 0-.022 0-.033-.002-.336-.044-.556-.732-.875-.797a.295.295 0 0 0-.06-.005c-.303 0-.7.402-.99.402a.265.265 0 0 1-.074-.01c-.33-.095-.434-.808-.733-.925a.358.358 0 0 0-.133-.023c-.273 0-.645.225-.904.225-.052 0-.1-.009-.14-.03-.308-.163-.245-.88-.499-1.065-.101-.074-.253-.09-.415-.09-.12 0-.245.01-.361.01-.17 0-.32-.019-.4-.108-.125-.14-.116-.464-.081-.735 1.175 1.294 4.523 1.782 7.697 1.782 3.174 0 6.522-.488 7.697-1.782.034.271.043.597-.083.737Z" fill="#5B5A5A" />
            <path d="m23.686 25.023-.417-.4-.416.4.416.4.417-.4ZM25.323 24.766l.416-.4-.416-.399-.417.4.417.399ZM26.905 26.19l-.417-.4-.416.4.416.4.417-.4ZM28.345 24.757l-.278-.266-.278.266.278.266.277-.266ZM32.95 25.79l.278.267.277-.266-.277-.266-.278.266ZM35.191 26.057l-.277-.266-.278.266.278.266.277-.266ZM31.984 24.1l-.278-.266-.277.266.277.266.278-.266ZM23.584 23.768l-.277-.267-.278.267.278.266.277-.266ZM22.103 25.023l-.278-.266-.277.266.277.266.278-.266ZM23.27 26.781l.277.267.278-.267-.278-.266-.278.266ZM27.043 22.703l-.277-.267-.278.267.278.266.277-.267ZM29.664 22.436l-.277-.266-.278.266.278.267.277-.267ZM25.323 22.969l-.278-.267-.277.267.277.266.278-.266ZM33.21 23.6l-.278-.265-.278.266.278.266.277-.266ZM29.803 27.346l.417-.4-.416-.399-.417.4.416.399ZM29.567 24.899l-.416-.4-.416.4.416.4.416-.4ZM31.102 23.368l-.416-.4-.417.4.417.4.416-.4ZM31.47 25.077l.416.4.416-.4-.416-.4-.416.4ZM34.06 24.5l-.416-.4-.416.4.416.399.417-.4ZM32.302 27.238l.417-.4-.417-.399-.416.4.416.399ZM21.825 26.148l.417.399.416-.4-.416-.399-.417.4Z" fill="#5B5A5A" />
        </svg>

        <!-- pasta icon -->
        <symbol id="pasta" viewBox="0 0 33 33">
            <title>Pasta</title>
            <path d="M5.5 22.688V11H4.125V9.625H5.5V8.25H4.125V6.875H5.5V5.5H4.125V4.125h8.25c.688.041 1.306.33 1.842.866.537.537.84 1.197.908 1.884h13.75V8.25h-13.75c-.069.729-.371 1.375-.908 1.966-.536.591-1.155.853-1.842.784h-2.75v9.694a.988.988 0 0 0 .33-.069c.151-.055.275 0 .357 0 .77 0 1.65.192 2.64.578.564-1.265 1.527-2.393 2.902-3.328 1.375-.935 2.75-1.375 4.125-1.375 2.104 0 3.891.729 5.349 2.186 1.457 1.458 2.172 3.245 2.172 5.377v.37c0 .18-.041.276-.041.317H4.317c.18-.688.564-1.375 1.183-2.063Zm2.75-1.747V11H6.875v10.587c.688-.343 1.114-.55 1.375-.646Zm4.125-11.316V8.25h-2.75v1.375h2.75Zm0-4.125h-2.75v1.375h2.75V5.5Zm-5.5 0v1.375H8.25V5.5H6.875Zm0 2.75v1.375H8.25V8.25H6.875ZM2.75 26.125h27.5l-2.75 2.75h-22l-2.75-2.75Z" />
        </symbol>

        <!-- google icon -->
        <symbol id="google" viewBox="0 0 115 115">
            <path d="M104.485 48.1155H100.625V47.9166H57.5V67.0833H84.5801C80.6294 78.2407 70.0135 86.25 57.5 86.25C41.6229 86.25 28.75 73.3772 28.75 57.5C28.75 41.6228 41.6229 28.75 57.5 28.75C64.8289 28.75 71.4965 31.5148 76.5733 36.0309L90.1265 22.4777C81.5686 14.502 70.1213 9.58331 57.5 9.58331C31.0381 9.58331 9.58337 31.038 9.58337 57.5C9.58337 83.962 31.0381 105.417 57.5 105.417C83.962 105.417 105.417 83.962 105.417 57.5C105.417 54.2872 105.086 51.151 104.485 48.1155Z" fill="#FFC107" />
            <path d="M15.1082 35.1972L30.8512 46.7427C35.111 36.1962 45.4274 28.75 57.5 28.75C64.8289 28.75 71.4965 31.5148 76.5733 36.0309L90.1265 22.4777C81.5686 14.502 70.1213 9.58331 57.5 9.58331C39.0952 9.58331 23.1342 19.974 15.1082 35.1972Z" fill="#FF3D00" />
            <path d="M57.5 105.417C69.8768 105.417 81.1229 100.68 89.6257 92.9775L74.7955 80.4281C69.823 84.2097 63.747 86.2549 57.5 86.25C45.0368 86.25 34.4545 78.303 30.4678 67.2127L14.8422 79.2518C22.7724 94.7696 38.8772 105.417 57.5 105.417Z" fill="#4CAF50" />
            <path d="M104.485 48.1155H100.625V47.9167H57.5V67.0834H84.5801C82.6903 72.3935 79.2862 77.0337 74.7883 80.4305L74.7955 80.4257L89.6257 92.9751C88.5764 93.9287 105.417 81.4584 105.417 57.5C105.417 54.2872 105.086 51.1511 104.485 48.1155Z" fill="#1976D2" />
        </symbol>

        <!-- facebook icon -->
        <symbol id="facebook" viewBox="0 0 25 25">
            <g clip-path="url(#a)">
                <path d="m18.317 14.063.695-4.525H14.67V6.602c0-1.237.606-2.444 2.55-2.444h1.974V.306s-1.79-.305-3.503-.305C12.117 0 9.78 2.168 9.78 6.09v3.448H5.806v4.524H9.78v10.938h4.89V14.063h3.647Z" fill="#fff" />
            </g>
            <defs>
                <clipPath id="a">
                    <path fill="#fff" d="M0 0h25v25H0z" />
                </clipPath>
            </defs>
        </symbol>
    </defs>
</svg>